<?xml version="1.0" encoding="UTF-8" standalone="no"?>
<svg
   width="16"
   height="16"
   version="1.1"
   id="svg1"
   sodipodi:docname="icon.svg"
   inkscape:version="1.3.2 (091e20e, 2023-11-25, custom)"
   inkscape:export-filename="icon.svg"
   inkscape:export-xdpi="96"
   inkscape:export-ydpi="96"
   xmlns:inkscape="http://www.inkscape.org/namespaces/inkscape"
   xmlns:sodipodi="http://sodipodi.sourceforge.net/DTD/sodipodi-0.dtd"
   xmlns="http://www.w3.org/2000/svg"
   xmlns:svg="http://www.w3.org/2000/svg">
  <defs
     id="defs1" />
  <sodipodi:namedview
     id="namedview1"
     pagecolor="#ffffff"
     bordercolor="#000000"
     borderopacity="0.25"
     inkscape:showpageshadow="2"
     inkscape:pageopacity="0.0"
     inkscape:pagecheckerboard="0"
     inkscape:deskcolor="#d1d1d1"
     inkscape:zoom="23.5625"
     inkscape:cx="5.3899204"
     inkscape:cy="13.34748"
     inkscape:window-width="1920"
     inkscape:window-height="1051"
     inkscape:window-x="-9"
     inkscape:window-y="-9"
     inkscape:window-maximized="1"
     inkscape:current-layer="svg1" />
  <path
     fill="#e0e0e0"
     d="m3 1c-1.1046 0-2 .8954-2 2v1h14v-1c0-1.1046-.89543-2-2-2zm9 1h1v1h-1zm-11 3v8c0 1.1046.89543 2 2 2h10c1.1046 0 2-.8954 2-2v-8z"
     id="path1" />
  <path
     d="m 2.8419096,6.3156497 v 6.8423643 c 0,0.290687 0.3299079,0.526336 0.73687,0.526336 H 13.15809 V 12.631678 H 4.3156496 V 9.4736641 h 1.4737401 v 1.5790069 c 0,0.290687 0.3299078,0.526336 0.73687,0.526336 H 13.15809 V 10.526335 H 7.2631297 V 9.4736641 H 13.15809 V 8.4209926 H 4.3156496 V 7.3683212 H 13.15809 V 6.3156497 Z"
     style="fill:#8eef97;stroke-width:0.999999"
     id="path1-6" />
</svg>
